<svg width="248" height="248" viewBox="0 0 248 248" fill="none" xmlns="http://www.w3.org/2000/svg"><path d="M221.95 73.2899C222.1 75.4599 222.1 77.6299 222.1 79.8199C222.1 146.55 171.3 223.51 78.41 223.51V223.47C50.97 223.51 24.1 215.65 1 200.83C4.99 201.31 9 201.55 13.02 201.56C35.76 201.58 57.85 193.95 75.74 179.9C54.13 179.49 35.18 165.4 28.56 144.83C36.13 146.29 43.93 145.99 51.36 143.96C27.8 139.2 10.85 118.5 10.85 94.4599C10.85 94.2399 10.85 94.0299 10.85 93.8199C17.87 97.7299 25.73 99.8999 33.77 100.14C11.58 85.3099 4.74 55.7899 18.14 32.7099C43.78 64.2599 81.61 83.4399 122.22 85.4699C118.15 67.9299 123.71 49.5499 136.83 37.2199C157.17 18.0999 189.16 19.0799 208.28 39.4099C219.59 37.1799 230.43 33.0299 240.35 27.1499C236.58 38.8399 228.69 48.7699 218.15 55.0799C228.16 53.8999 237.94 51.2199 247.15 47.1299C240.37 57.2899 231.83 66.1399 221.95 73.2899Z" fill="#1D9BF0"/></svg>
