<svg width="13" height="13" viewBox="0 0 13 13" fill="none" xmlns="http://www.w3.org/2000/svg"><path d="M6.259 7.48604L1.66832 12.0764C1.57084 12.174 1.51131 12.3094 1.51131 12.4584C1.51131 12.7561 1.75244 13 2.05301 13C2.13155 13 2.20453 12.9836 2.27226 12.9539C2.27226 12.9539 9.92071 9.63894 10.0074 9.59816C10.1859 9.51729 10.3242 9.36013 10.3784 9.165L11.6163 4.70446L11.8654 4.95093C12.1252 5.21092 12.5451 5.21092 12.8048 4.95093C13.0651 4.69096 13.0651 4.27094 12.8048 4.01121L8.98886 0.194976C8.72916 -0.0649921 8.30909 -0.0649921 8.04942 0.194976C7.78915 0.454944 7.78915 0.87496 8.04942 1.13469L8.29564 1.38115L3.82688 2.62424C3.63183 2.68138 3.4748 2.82208 3.39348 3.00616L0.0432833 10.736C0.016276 10.8009 0 10.8715 0 10.9471C0 11.2478 0.243752 11.4888 0.541697 11.4888C0.69614 11.4888 0.834188 11.4264 0.931694 11.3238L5.51412 6.74128C5.45188 6.58123 5.41668 6.41061 5.41668 6.22921C5.41668 5.48177 6.02342 4.87503 6.77089 4.87503C7.51827 4.87503 8.12501 5.48177 8.12501 6.22921C8.12501 6.97666 7.51827 7.58343 6.77089 7.58343C6.58947 7.58343 6.41884 7.54822 6.259 7.48604Z" fill="#3C3C3C"/></svg>
