<?xml version="1.0" encoding="UTF-8"?>
<svg width="11px" height="16px" viewBox="0 0 11 16" version="1.1" xmlns="http://www.w3.org/2000/svg" xmlns:xlink="http://www.w3.org/1999/xlink">
  <g stroke="none" stroke-width="1" fill="none" fill-rule="evenodd">
    <g>
      <rect x="0" y="0" width="11" height="16"></rect>
      <path d="M5.44832,7.9232 C4.09344,7.9232 2.99392,6.81664 2.99392,5.45152 C2.99392,4.08512 4.09344,2.9792 5.44832,2.9792 C6.8032,2.9792 7.90272,4.08576 7.90272,5.45152 C7.90272,6.816 6.8032,7.9232 5.44832,7.9232 M5.44832,0 C2.448,0 0.016,2.44928 0.016,5.47136 C0.016,8.32576 2.47616,12.00768 4.11904,13.80032 C4.7328,14.46912 5.44768,15.37088 5.44768,15.37088 C5.44768,15.37088 6.21568,14.464 6.87424,13.77536 C8.51584,12.0576 10.88,8.60864 10.88,5.47136 C10.88,2.44928 8.448,0 5.44832,0" fill="#3C3C3C" fill-rule="nonzero"></path>
    </g>
  </g>
</svg>
