<svg width="13" height="13" viewBox="0 0 13 13" fill="none" xmlns="http://www.w3.org/2000/svg">
<path d="M11.7016 10.6578L12.0758 13H1.224L1.5982 10.6578C1.6444 10.3621 1.72293 10.1219 1.83381 9.9371C1.95392 9.74307 2.07865 9.59062 2.20801 9.47974C2.35584 9.35039 2.51753 9.24876 2.69308 9.17484L5.36792 8.16311V7.34542C5.05378 7.15139 4.77659 6.8973 4.53637 6.58316C4.29614 6.25977 4.11135 5.89943 3.982 5.50213C3.96352 5.50213 3.94966 5.50675 3.94042 5.51599C3.93118 5.51599 3.91732 5.51599 3.89884 5.51599C3.75101 5.51599 3.62627 5.44207 3.52464 5.29424C3.43224 5.14641 3.38605 4.96624 3.38605 4.75373C3.38605 4.58742 3.41838 4.43959 3.48306 4.31023C3.54774 4.18088 3.63089 4.09311 3.73253 4.04691C3.5385 3.69581 3.43224 3.35394 3.41376 3.02132C3.40453 2.67946 3.45534 2.3607 3.56622 2.06503C3.68633 1.76013 3.85726 1.48294 4.07901 1.23348C4.30076 0.984008 4.55484 0.771499 4.84127 0.595949C5.12769 0.411158 5.42798 0.267946 5.74212 0.166311C6.06551 0.0646763 6.37965 0.0092394 6.68455 0C7.02642 0.0092394 7.33594 0.0508172 7.61313 0.124734C7.85335 0.18941 8.07048 0.295664 8.26451 0.443497C8.45854 0.582089 8.55556 0.785359 8.55556 1.0533C8.78654 1.04407 8.98057 1.08102 9.13764 1.16418C9.29472 1.24733 9.41945 1.35821 9.51185 1.4968C9.60424 1.63539 9.66892 1.79709 9.70588 1.98188C9.75207 2.16667 9.77979 2.35608 9.78903 2.55011C9.80751 3.00284 9.74745 3.52488 9.60886 4.1162C9.77517 4.2548 9.85833 4.46731 9.85833 4.75373C9.85833 4.96624 9.80751 5.14641 9.70588 5.29424C9.61348 5.44207 9.49337 5.51599 9.34553 5.51599C9.32706 5.51599 9.30858 5.51599 9.2901 5.51599C9.28086 5.50675 9.267 5.50213 9.24852 5.50213C9.11917 5.88095 8.939 6.22743 8.70801 6.54158C8.48626 6.84648 8.22755 7.10057 7.93189 7.30384V8.16311L10.5929 9.17484C10.7684 9.24876 10.9301 9.35039 11.0779 9.47974C11.2073 9.59062 11.332 9.74307 11.4521 9.9371C11.5723 10.1219 11.6554 10.3621 11.7016 10.6578Z" fill="black"/>
</svg>
