<svg width="13" height="13" viewBox="0 0 13 13" fill="none" xmlns="http://www.w3.org/2000/svg"><rect width="13" height="13" rx="1" fill="#3C3C3C"/><rect width="12.1875" height="12.1875" fill="white"/><path fill-rule="evenodd" clip-rule="evenodd" d="M3.71749 0.0735011C3.75615 0.0688207 3.79444 0.0574234 3.80259 0.0481536C3.82484 0.0228364 5.45817 0.0221374 5.48346 0.0474241C5.49285 0.0568155 5.52938 0.0679697 5.56467 0.0722246C5.64482 0.0819199 5.91999 0.151519 6.02998 0.189905C6.05004 0.196896 6.09107 0.210117 6.12116 0.219295C6.22036 0.249506 6.32157 0.287436 6.3333 0.298803C6.33965 0.304942 6.3523 0.309987 6.36142 0.309987C6.3705 0.309987 6.40907 0.324272 6.44712 0.341748C6.48515 0.359193 6.53815 0.383203 6.5649 0.395087C6.67069 0.442074 6.75102 0.482253 6.83235 0.528846C6.87916 0.555682 6.93386 0.586014 6.95392 0.596287C7.08039 0.660993 7.48531 0.939999 7.54354 1.00258C7.54689 1.00616 7.59612 1.04786 7.65296 1.09525C7.78757 1.20749 8.0187 1.43844 8.13 1.57193C8.17851 1.63007 8.22112 1.6804 8.22471 1.68374C8.26525 1.72146 8.49903 2.04569 8.53152 2.10924C8.53663 2.11927 8.55696 2.15209 8.57665 2.18218C8.59635 2.21227 8.62094 2.2533 8.6313 2.27336C8.64163 2.29342 8.67145 2.34813 8.6975 2.39493C8.74774 2.48523 8.78898 2.56683 8.82952 2.65631C8.84317 2.6864 8.86849 2.74162 8.88581 2.77907C8.90313 2.81648 8.9173 2.85505 8.9173 2.86477C8.9173 2.87447 8.92268 2.88781 8.92924 2.89438C8.93581 2.90094 8.94903 2.93076 8.9586 2.96063C8.96817 2.99051 8.99203 3.06144 9.01161 3.11828C9.07011 3.28796 9.11403 3.44211 9.13804 3.56201C9.14476 3.59545 9.15789 3.6538 9.16725 3.69167C9.17661 3.72954 9.18998 3.81096 9.19697 3.8726C9.20396 3.93423 9.2156 4.00718 9.22287 4.03471C9.24119 4.10428 9.25107 4.89592 9.23526 5.02694C9.21034 5.23325 9.18411 5.41157 9.16731 5.48891C9.1223 5.69604 9.09376 5.81302 9.06941 5.8901C9.02516 6.03024 8.98875 6.14023 8.97887 6.16363C8.97322 6.17701 8.95121 6.23375 8.92994 6.28976C8.90869 6.34575 8.88654 6.40045 8.88073 6.41134C8.87493 6.42219 8.85572 6.46392 8.83803 6.50403C8.78618 6.62174 8.69801 6.7924 8.62905 6.90859C8.61428 6.93348 8.59301 6.97026 8.58179 6.99032C8.53483 7.07429 8.34956 7.34221 8.27491 7.43405C8.25048 7.46414 8.22224 7.49915 8.21221 7.51186C8.06618 7.69665 7.74052 8.0224 7.56071 8.16351C7.54792 8.17354 7.51227 8.20229 7.48145 8.22736C7.36389 8.3231 7.05723 8.52944 6.95392 8.58232C6.93386 8.59256 6.89557 8.61442 6.86882 8.63086C6.76272 8.69602 6.49633 8.822 6.33999 8.88093C6.28315 8.90236 6.22571 8.92476 6.21234 8.93071C6.19897 8.9367 6.16341 8.94925 6.13332 8.95867C6.10323 8.96807 6.0622 8.98153 6.04214 8.98858C5.95589 9.01891 5.71125 9.08365 5.59841 9.10602C5.5206 9.12143 5.48115 9.1283 5.23977 9.16848C5.08954 9.19346 4.38762 9.20549 4.21857 9.18595C3.99804 9.16048 3.90021 9.14586 3.7969 9.12298C3.73885 9.11009 3.68068 9.09958 3.66761 9.09958C3.65458 9.09958 3.61728 9.09152 3.58476 9.08164C3.55224 9.0718 3.49279 9.05511 3.45268 9.04457C3.23838 8.98828 3.04745 8.92524 2.97059 8.88534C2.95284 8.87613 2.93199 8.86859 2.92427 8.86859C2.87406 8.86859 2.37717 8.61247 2.17396 8.48184C1.71208 8.18497 1.2434 7.75071 0.963539 7.36035L0.872361 7.23346C0.724074 7.02721 0.552689 6.72617 0.445008 6.48276C0.38711 6.35183 0.372947 6.31754 0.340913 6.2305L0.291494 6.09677C0.262256 6.01814 0.235663 5.93311 0.219281 5.86579C0.210315 5.82901 0.197216 5.78251 0.190165 5.76245C0.156185 5.6658 0.0843673 5.27142 0.0684415 5.09408C0.0618463 5.02068 0.0506009 4.95868 0.0434586 4.95631C0.025071 4.95017 0.0253142 4.22831 0.0436714 4.22221C0.0512088 4.21968 0.0620894 4.15765 0.0689278 4.07833C0.0755534 4.00164 0.0886223 3.90332 0.0979529 3.85986C0.107314 3.8164 0.118103 3.75622 0.121933 3.72613C0.133573 3.63474 0.173692 3.47199 0.243291 3.23377C0.277605 3.11643 0.280401 3.10849 0.358936 2.90553C0.459536 2.64549 0.596972 2.36806 0.717266 2.18218C0.74538 2.13872 0.775499 2.0897 0.784191 2.07322C0.792884 2.05675 0.838746 1.9911 0.886159 1.92734C0.933541 1.86357 0.987093 1.78945 1.00512 1.76264C1.02317 1.73583 1.1086 1.63463 1.19495 1.53773C1.68786 0.984828 2.30106 0.550911 2.92992 0.309957C3.00347 0.281752 3.07395 0.253335 3.08653 0.24677C3.09912 0.240205 3.13468 0.227653 3.16556 0.218839C3.19643 0.210056 3.2764 0.186501 3.34326 0.166533C3.41013 0.146535 3.48398 0.126385 3.50738 0.121734C3.53079 0.117054 3.57182 0.106234 3.59856 0.097633C3.62531 0.0890318 3.67883 0.0781512 3.71749 0.0735011ZM9.69231 0.151125C9.64718 0.0994568 9.61025 0.0511627 9.61025 0.0437773C9.61025 0.034082 9.96743 0.030374 10.8989 0.030374H12.1876V5.34303C12.1876 8.26499 12.1834 10.6557 12.1783 10.6557C12.1678 10.6557 12.1213 10.6123 11.7567 10.262C11.6166 10.1275 11.4933 10.0092 11.4827 9.9992C11.3717 9.89499 10.785 9.33591 10.7108 9.2637C10.6202 9.17559 10.2274 8.802 10.13 8.71128C10.0428 8.63016 10.0429 8.62633 10.1389 8.48902C10.1822 8.42698 10.2288 8.35708 10.2425 8.33368C10.2562 8.31028 10.2887 8.2583 10.3148 8.21819C10.3409 8.17807 10.4013 8.07686 10.4491 7.99328L10.5464 7.82308C10.5638 7.79266 10.7173 7.48001 10.7403 7.42797L10.7807 7.3368C10.7911 7.31339 10.8137 7.26312 10.831 7.2251C10.8483 7.18705 10.8624 7.14961 10.8624 7.14186C10.8624 7.13414 10.87 7.11329 10.8792 7.09554C10.8948 7.06551 10.9115 7.02177 10.9693 6.85945C11.0164 6.72721 11.0346 6.67241 11.0511 6.61345C11.0604 6.58002 11.079 6.51437 11.0923 6.46756C11.1747 6.17929 11.2377 5.88615 11.2764 5.61049C11.2835 5.56034 11.2973 5.46734 11.3071 5.40382C11.317 5.34029 11.3328 5.12967 11.3423 4.93577C11.3758 4.25029 11.3195 3.60238 11.1763 3.0271C11.1696 3.00036 11.1571 2.94838 11.1486 2.91161C11.14 2.87483 11.1238 2.81466 11.1127 2.77788L11.0688 2.632C11.0366 2.5251 10.9911 2.38837 10.9534 2.28552C10.9362 2.23871 10.9141 2.17467 10.9041 2.14319C10.8942 2.11173 10.8808 2.08268 10.8743 2.07866C10.8678 2.07462 10.8624 2.0631 10.8624 2.05307C10.8624 2.04301 10.8482 2.00369 10.8307 1.96563C10.8132 1.92761 10.7881 1.87187 10.7748 1.84178C10.7084 1.69183 10.5544 1.39075 10.4617 1.23019C10.4046 1.13117 10.352 1.03957 10.3447 1.02662C10.3374 1.0137 10.3224 0.993065 10.3112 0.980786C10.3001 0.968508 10.291 0.955348 10.291 0.951488C10.291 0.93623 10.0697 0.617836 9.97673 0.499456C9.94482 0.45876 9.91357 0.416545 9.90731 0.405634C9.89613 0.386061 9.85406 0.336277 9.69231 0.151125ZM0.0304489 10.8806V12.1875H5.34918C9.9298 12.1875 10.6679 12.1851 10.6679 12.1702C10.6679 12.1608 10.663 12.1512 10.6569 12.149C10.6509 12.1468 10.5155 12.0191 10.3561 11.8653C10.1966 11.7116 10.0006 11.5229 9.92059 11.4459C9.84057 11.369 9.70653 11.2396 9.62274 11.1584C9.53898 11.0771 9.43412 10.9759 9.38972 10.9334C9.34532 10.891 9.17846 10.7303 9.01893 10.5764C8.96321 10.5226 8.91403 10.4748 8.87044 10.4324C8.63064 10.1993 8.56 10.1306 8.49974 10.1387C8.47458 10.1421 8.45123 10.1589 8.41812 10.1827C8.40371 10.1931 8.38744 10.2048 8.36837 10.2173C8.18006 10.3407 8.13112 10.3708 7.9508 10.4734L7.82315 10.5463C7.79331 10.5635 7.48066 10.7179 7.42805 10.7415C7.4013 10.7534 7.3548 10.774 7.32471 10.7873C7.29462 10.8006 7.24478 10.8229 7.21396 10.8369C7.18314 10.8509 7.15284 10.8624 7.14664 10.8624C7.14041 10.8624 7.11388 10.8733 7.08765 10.8867C7.06142 10.9 7.03139 10.911 7.02091 10.911C7.01045 10.911 6.99109 10.9183 6.9779 10.9273C6.96471 10.9363 6.93204 10.9495 6.90529 10.9567C6.87855 10.9638 6.81016 10.9857 6.75333 11.0053C6.69649 11.0249 6.6117 11.0525 6.56489 11.0666C6.51809 11.0807 6.44384 11.1034 6.39992 11.1171C6.35597 11.1308 6.31072 11.142 6.29935 11.142C6.28799 11.142 6.23914 11.1526 6.19082 11.1655C6.03408 11.2075 5.82975 11.2473 5.62272 11.2759L5.58985 11.2805C5.44434 11.3007 5.35766 11.3127 5.27057 11.3199C5.14225 11.3304 5.01306 11.3303 4.69352 11.33L4.64407 11.33C4.22343 11.3297 4.04017 11.3253 3.98759 11.3143C3.94747 11.3058 3.85602 11.294 3.78432 11.288C3.71265 11.282 3.61145 11.2687 3.55941 11.2585C3.50741 11.2483 3.43201 11.2346 3.39189 11.228C3.30275 11.2134 3.21753 11.1959 3.08188 11.1645C2.93603 11.1307 2.66265 11.0566 2.58952 11.0311C2.56946 11.024 2.52296 11.0101 2.48618 11C2.44941 10.9899 2.41385 10.9774 2.40716 10.972C2.40048 10.9668 2.37586 10.9584 2.35246 10.9535C2.32905 10.9486 2.29623 10.9377 2.27951 10.9293C2.23997 10.9093 2.1177 10.8624 2.10527 10.8624C2.09448 10.8624 1.97467 10.8093 1.92507 10.7825C1.90732 10.7729 1.88635 10.7651 1.87845 10.7651C1.84712 10.7651 1.37311 10.522 1.17933 10.4065C1.13447 10.3797 1.08429 10.3505 1.06781 10.3416C0.996179 10.3027 0.711581 10.1057 0.547126 9.98115C0.388932 9.86134 0.340121 9.82128 0.150348 9.65576C0.0986199 9.61063 0.0504777 9.5737 0.0433658 9.5737C0.0343392 9.5737 0.0304489 9.96617 0.0304489 10.8806ZM10.7165 12.1775C10.7165 12.167 11.0801 11.7964 11.7536 11.1207C11.9818 10.8917 12.1728 10.7043 12.1781 10.7043C12.1833 10.7043 12.1875 11.038 12.1875 11.4459V12.1875H11.452C11.0475 12.1875 10.7165 12.183 10.7165 12.1775Z" fill="#3C3C3C"/></svg>
