<?xml version="1.0" encoding="UTF-8"?>
<svg width="16px" height="16px" viewBox="0 0 16 16" version="1.1" xmlns="http://www.w3.org/2000/svg" xmlns:xlink="http://www.w3.org/1999/xlink">
    <!-- Generator: Sketch 51.1 (57501) - http://www.bohemiancoding.com/sketch -->
    <title>Slice 1</title>
    <desc>Created with Sketch.</desc>
    <defs></defs>
    <g id="Page-1" stroke="none" stroke-width="1" fill="none" fill-rule="evenodd">
        <g id="blog" fill="#3C3C3C" fill-rule="nonzero">
            <path d="M7.70465753,9.20832877 L2.07905023,14.8334977 C1.95959817,14.9531324 1.8866484,15.1190868 1.8866484,15.3016256 C1.8866484,15.666484 2.18213699,15.9652968 2.55046575,15.9652968 C2.64672146,15.9652968 2.73614612,15.9452055 2.81914155,15.908895 C2.81914155,15.908895 12.1918539,11.8465753 12.2980457,11.7966027 C12.516895,11.6974977 12.6863562,11.5049132 12.7527671,11.26579 L14.2696986,5.79967123 L14.5749406,6.10169863 C14.8932968,6.4203105 15.4079269,6.4203105 15.726137,6.10169863 C16.0450776,5.78312329 16.0450776,5.26842009 15.726137,4.95013699 L11.0499361,0.273570776 C10.7316895,-0.0450045662 10.2169132,-0.0450045662 9.8987032,0.273570776 C9.57976256,0.592146119 9.57976256,1.10684932 9.8987032,1.42513242 L10.2004384,1.72715982 L4.72423744,3.25048402 C4.48522374,3.32051142 4.29278539,3.49293151 4.19313242,3.71850228 L0.0876712329,13.1910137 C0.0545753425,13.2704292 0.034630137,13.356968 0.034630137,13.4496438 C0.034630137,13.8181187 0.333333333,14.1134612 0.698447489,14.1134612 C0.887707763,14.1134612 1.05687671,14.036968 1.1763653,13.9112329 L6.79185388,8.29567123 C6.71557991,8.09954338 6.67243836,7.89044749 6.67243836,7.66816438 C6.67243836,6.75221918 7.41596347,6.00869406 8.33194521,6.00869406 C9.24781735,6.00869406 9.99134247,6.75221918 9.99134247,7.66816438 C9.99134247,8.58410959 9.24781735,9.32767123 8.33194521,9.32767123 C8.10962557,9.32767123 7.90052968,9.28452968 7.70465753,9.20832877 Z" id="Shape"></path>
        </g>
    </g>
</svg>