<svg width="13" height="14" viewBox="0 0 13 14" fill="none" xmlns="http://www.w3.org/2000/svg"><path d="M9.47 1.945C9.92 1.945 10.34 2.03 10.73 2.2C11.12 2.37 11.46 2.6 11.75 2.89C12.04 3.18 12.27 3.52 12.44 3.91C12.61 4.3 12.7 4.72 12.71 5.17C12.72 5.83 12.575 6.53 12.275 7.27C11.975 8 11.55 8.72 11 9.43C10.45 10.13 9.79 10.79 9.02 11.41C8.26 12.02 7.42 12.535 6.5 12.955C5.58 12.535 4.735 12.02 3.965 11.41C3.205 10.79 2.55 10.13 2 9.43C1.45 8.72 1.025 8 0.725 7.27C0.425 6.53 0.28 5.83 0.29 5.17C0.3 4.72 0.39 4.3 0.56 3.91C0.73 3.52 0.96 3.18 1.25 2.89C1.54 2.6 1.88 2.37 2.27 2.2C2.66 2.03 3.08 1.945 3.53 1.945C4.2 1.945 4.8 2.13 5.33 2.5C5.86 2.86 6.25 3.325 6.5 3.895C6.75 3.325 7.14 2.86 7.67 2.5C8.2 2.13 8.8 1.945 9.47 1.945Z" fill="#3C3C3C"/></svg>
