<svg width="13" height="13" viewBox="0 0 13 13" fill="none" xmlns="http://www.w3.org/2000/svg">
<path d="M8.75012 13H7.01852H5.28519C5.28519 13 5.28995 11.9721 5.28519 11.2667C2.91355 11.7771 2.25185 9.96667 2.25185 9.96667C1.81852 9.1 1.38519 8.66667 1.38519 8.66667C0.518518 8.15187 1.38519 8.23333 1.38519 8.23333C2.25185 8.23333 2.68519 9.1 2.68519 9.1C3.44569 10.3918 4.79899 10.1838 5.28519 9.96667C5.28519 9.53333 5.47499 8.87813 5.71852 8.66667C3.82572 8.45347 2.25012 7.36667 2.25012 5.2C2.25012 3.03333 2.68519 2.6 3.11852 2.16667C3.03099 1.95303 2.66829 1.1635 3.13195 0C3.13195 0 3.98345 0 4.85012 1.3C5.27955 0.870567 6.58345 0.866667 7.01722 0.866667C7.45012 0.866667 8.75402 0.870567 9.18345 1.3C10.0501 0 10.9034 0 10.9034 0C11.367 1.1635 11.0043 1.95303 10.9168 2.16667C11.3501 2.6 11.7835 3.03333 11.7835 5.2C11.7835 7.36667 10.2096 8.45347 8.31678 8.66667C8.56032 8.87813 8.75012 9.62433 8.75012 9.96667V13Z" fill="#3C3C3C"/>
</svg>
