<?xml version="1.0" encoding="UTF-8"?>
<svg width="16px" height="16px" viewBox="0 0 16 16" version="1.1" xmlns="http://www.w3.org/2000/svg" xmlns:xlink="http://www.w3.org/1999/xlink">
  <g stroke="none" stroke-width="1" fill="none" fill-rule="evenodd">
    <g transform="translate(1.000000, 0.000000)" fill="#3C3C3C" fill-rule="nonzero">
      <path d="M9.6,16 L7.4688,16 L5.33546667,16 C5.33546667,16 5.34133333,14.7349333 5.33546667,13.8666667 C2.41653333,14.4949333 1.60213333,12.2666667 1.60213333,12.2666667 C1.0688,11.2 0.535466667,10.6666667 0.535466667,10.6666667 C-0.5312,10.0330667 0.535466667,10.1333333 0.535466667,10.1333333 C1.60213333,10.1333333 2.13546667,11.2 2.13546667,11.2 C3.07146667,12.7898667 4.73706667,12.5338667 5.33546667,12.2666667 C5.33546667,11.7333333 5.56906667,10.9269333 5.8688,10.6666667 C3.5392,10.4042667 1.6,9.06666667 1.6,6.4 C1.6,3.73333333 2.13546667,3.2 2.6688,2.66666667 C2.56106667,2.40373333 2.11466667,1.432 2.68533333,0 C2.68533333,0 3.73333333,0 4.8,1.6 C5.32853333,1.07146667 6.93333333,1.06666667 7.4672,1.06666667 C8,1.06666667 9.6048,1.07146667 10.1333333,1.6 C11.2,0 12.2501333,0 12.2501333,0 C12.8208,1.432 12.3744,2.40373333 12.2666667,2.66666667 C12.8,3.2 13.3333333,3.73333333 13.3333333,6.4 C13.3333333,9.06666667 11.3962667,10.4042667 9.06666667,10.6666667 C9.3664,10.9269333 9.6,11.8453333 9.6,12.2666667 L9.6,16 Z"></path>
    </g>
  </g>
</svg>
