<?xml version="1.0" encoding="UTF-8"?>
<svg width="16px" height="16px" viewBox="0 0 16 16" version="1.1" xmlns="http://www.w3.org/2000/svg" xmlns:xlink="http://www.w3.org/1999/xlink">
  <g stroke="none" stroke-width="1" fill="none" fill-rule="evenodd">
    <g fill-rule="nonzero">
      <rect fill="#3C3C3C" x="0" y="0" width="16" height="16" rx="1"></rect>
      <g>
        <rect fill="#FFFFFF" x="0" y="0" width="15" height="15"></rect>
        <path d="M4.68003741,0.0592892768 C4.67001247,0.0706982544 4.6228803,0.0847256858 4.57529925,0.0904862843 C4.5277182,0.0962094763 4.46184539,0.109600998 4.42892768,0.120187032 C4.39600998,0.130773067 4.34551122,0.144089776 4.31670823,0.149850374 C4.28790524,0.155573566 4.19700748,0.180374065 4.11471322,0.204987531 C4.03241895,0.229563591 3.93400249,0.258553616 3.89599751,0.26936409 C3.85799252,0.28021197 3.81422693,0.295660848 3.79874065,0.303740648 C3.78325436,0.311820449 3.69650873,0.346795511 3.60598504,0.381508728 C2.83200748,0.678067332 2.07729426,1.2121197 1.47063591,1.89261845 C1.36436409,2.01187032 1.25921446,2.13643392 1.23699501,2.16942643 C1.21481297,2.20241895 1.14890274,2.29365337 1.09058603,2.37213217 C1.03223192,2.45061097 0.975785536,2.53140898 0.965087282,2.55168329 C0.954389027,2.57195761 0.917319202,2.63229426 0.882718204,2.68578554 C0.734663342,2.91456359 0.565511222,3.25600998 0.441695761,3.57605985 C0.345037406,3.82586035 0.34159601,3.83562344 0.29936409,3.98004988 C0.213703242,4.2732419 0.164326683,4.47355362 0.15,4.58603491 C0.145286783,4.62306733 0.132007481,4.69713217 0.120486284,4.75062344 C0.109002494,4.80411471 0.0929177057,4.92512469 0.0847630923,5.01950125 C0.0763466334,5.11713217 0.0629551122,5.1934788 0.0536783042,5.19658354 C0.031084788,5.20410224 0.0307855362,6.09254364 0.0534164589,6.10009975 C0.0622069825,6.10301746 0.0760473815,6.17932668 0.0841645885,6.26966334 C0.103765586,6.48793017 0.192157107,6.97331671 0.233977556,7.09226933 C0.24265586,7.11695761 0.258778055,7.17418953 0.269812968,7.21945137 C0.289975062,7.30230673 0.322705736,7.40697007 0.358690773,7.50374065 C0.369389027,7.53254364 0.396770574,7.60660848 0.419513716,7.66832918 C0.45894015,7.77546135 0.476371571,7.81765586 0.547630923,7.97880299 C0.680162095,8.27839152 0.891097257,8.64890274 1.07360349,8.90274314 C1.12092269,8.96857855 1.17142145,9.03886534 1.18582294,9.05891521 C1.53026185,9.53936409 2.10710723,10.0738279 2.67557357,10.4392145 C2.92567332,10.5999875 3.53723192,10.915212 3.59902743,10.915212 C3.60852868,10.915212 3.63418953,10.9244888 3.65603491,10.9358229 C3.75063591,10.9849377 3.98562344,11.0625187 4.24937656,11.1317955 C4.29875312,11.1447756 4.3719202,11.1653117 4.41194514,11.1774314 C4.45197007,11.1895885 4.49786783,11.1995012 4.51391521,11.1995012 C4.53,11.1995012 4.60159601,11.2124439 4.67304239,11.2283042 C4.80018703,11.2564713 4.9205985,11.2744638 5.19201995,11.3058105 C5.40007481,11.3298628 6.26397756,11.3150499 6.44887781,11.2843017 C6.7459601,11.2348504 6.79451372,11.2263965 6.89027431,11.2074314 C7.02916459,11.1799002 7.33024938,11.1002244 7.43640898,11.0628928 C7.46109726,11.0542145 7.51159601,11.0376434 7.54862843,11.0260848 C7.58566085,11.0144888 7.62942643,10.9990399 7.64588529,10.9916708 C7.66234414,10.9843392 7.73304239,10.9567706 7.80299252,10.930399 C7.99541147,10.8578678 8.3232793,10.702818 8.45386534,10.6226185 C8.48678304,10.6023815 8.53391521,10.5754863 8.55860349,10.5628803 C8.68574813,10.497793 9.06317955,10.2438404 9.20786783,10.12601 C9.245798,10.0951496 9.28967581,10.0597631 9.30542394,10.047419 C9.5267207,9.87374065 9.92753117,9.47281796 10.1072693,9.24538653 C10.1196135,9.22975062 10.1543641,9.18665835 10.1844389,9.14962594 C10.2763092,9.03658354 10.5043392,8.70684539 10.5621322,8.60349127 C10.5759352,8.57880299 10.6021197,8.53354115 10.6202993,8.50290524 C10.7051746,8.35990025 10.8136908,8.14986284 10.8775062,8.00498753 C10.8992768,7.95561097 10.9229177,7.90425187 10.9300623,7.89089776 C10.937207,7.87750623 10.9644763,7.81017456 10.9906234,7.74127182 C11.016808,7.67233167 11.0438903,7.60249377 11.0508479,7.58603491 C11.063005,7.55723192 11.107818,7.42185786 11.1622818,7.24937656 C11.1922444,7.15451372 11.2273691,7.01053616 11.2827681,6.75561097 C11.3034539,6.66041147 11.3357357,6.44094763 11.366409,6.18703242 C11.3858603,6.02577307 11.3737032,5.05144638 11.3511471,4.96582294 C11.342207,4.93193267 11.3278803,4.84215711 11.3192768,4.76629676 C11.3106733,4.69043641 11.2942145,4.59022444 11.2826933,4.54361596 C11.2711721,4.49700748 11.2550125,4.42518703 11.2467456,4.3840399 C11.2171945,4.23647132 11.1631421,4.04674564 11.0911347,3.83790524 C11.0670449,3.76795511 11.0376808,3.68064838 11.0258978,3.64387781 C11.0141147,3.60710723 10.9978429,3.57041147 10.9897631,3.56233167 C10.9816833,3.55425187 10.9750623,3.53783042 10.9750623,3.52589776 C10.9750623,3.51392768 10.9576309,3.46645885 10.9363092,3.42041147 C10.9149875,3.37432668 10.8838279,3.3063591 10.8670324,3.26932668 C10.8171322,3.159202 10.7663716,3.05876559 10.7045387,2.94763092 C10.6724813,2.89002494 10.6357855,2.82269327 10.6230673,2.79800499 C10.6103117,2.77331671 10.5800499,2.72281796 10.5558105,2.68578554 C10.5315711,2.64875312 10.5065461,2.60835411 10.5002618,2.59600998 C10.4602743,2.51779302 10.1725436,2.11874065 10.1226434,2.0723192 C10.1182294,2.06820449 10.0657855,2.00625935 10.0060848,1.93470075 C9.86910224,1.77041147 9.58462594,1.4861596 9.41895262,1.34801746 C9.34900249,1.28970075 9.28840399,1.23837905 9.28428928,1.23396509 C9.21261845,1.15694514 8.71425187,0.813553616 8.55860349,0.733915212 C8.53391521,0.72127182 8.46658354,0.68394015 8.40897756,0.650910224 C8.30887781,0.593566085 8.21001247,0.544114713 8.0798005,0.486284289 C8.04688279,0.471658354 7.98164589,0.442107232 7.93485037,0.42063591 C7.88801746,0.399127182 7.84054863,0.381546135 7.82936409,0.381546135 C7.81814214,0.381546135 7.80258105,0.375336658 7.79476309,0.367780549 C7.78032419,0.353790524 7.6557606,0.307107232 7.53366584,0.269925187 C7.49663342,0.258628429 7.44613466,0.242356608 7.42144638,0.233753117 C7.28607232,0.186508728 6.94739401,0.10084788 6.84875312,0.088915212 C6.80532419,0.0836783042 6.7603616,0.0699501247 6.74880299,0.0583915212 C6.7176808,0.0272693267 4.70741895,0.0281296758 4.68003741,0.0592892768 M11.8279302,0.0539027431 C11.8279302,0.0629925187 11.8733791,0.122431421 11.9289277,0.186022444 C12.128005,0.413902743 12.1797756,0.475174564 12.1935411,0.499264339 C12.2012469,0.512693267 12.2397007,0.564650873 12.2789776,0.614738155 C12.3933666,0.760436409 12.6658354,1.15230673 12.6658354,1.17108479 C12.6658354,1.17583541 12.67702,1.19203242 12.6906733,1.20714464 C12.7043641,1.22225686 12.7228803,1.24765586 12.7318204,1.26355362 C12.740798,1.27948878 12.8056234,1.39223192 12.8759102,1.51410224 C12.9899252,1.7117207 13.1795387,2.08226933 13.2611596,2.26683292 C13.2775436,2.30386534 13.3085162,2.37246883 13.3299875,2.41926434 C13.3514963,2.46609726 13.3690773,2.51450125 13.3690773,2.52688279 C13.3690773,2.53922693 13.3756234,2.55340399 13.3836658,2.55837905 C13.3916708,2.56331671 13.4082045,2.59907731 13.420399,2.63779302 C13.4326309,2.67654613 13.4599002,2.7553616 13.4810349,2.81296758 C13.5274564,2.93955112 13.5834913,3.10784289 13.6230673,3.2394015 C13.6391521,3.29289277 13.6634663,3.37369077 13.6771197,3.41895262 C13.6908105,3.46421446 13.7106359,3.5382793 13.7212219,3.58354115 C13.7317706,3.62880299 13.7471446,3.69276808 13.7553367,3.72568579 C13.9315586,4.43371571 14.0009102,5.23114713 13.9596509,6.07481297 C13.94798,6.31346633 13.9284913,6.57269327 13.9163716,6.65087282 C13.9042893,6.72905237 13.8872693,6.84351621 13.878591,6.90523691 C13.8309352,7.24451372 13.7534289,7.60529925 13.65202,7.96009975 C13.6355611,8.01770574 13.6127057,8.09850374 13.6012219,8.13965087 C13.580985,8.21221945 13.5585786,8.27966334 13.5005985,8.44241895 C13.429414,8.64220698 13.4088778,8.69603491 13.3896883,8.73299252 C13.3783541,8.75483791 13.3690773,8.78049875 13.3690773,8.79 C13.3690773,8.79953865 13.3516459,8.84562344 13.3303616,8.89245636 C13.3090773,8.93925187 13.2812469,9.00112219 13.2684913,9.02992519 C13.2557357,9.05872818 13.233404,9.10922693 13.2188155,9.14214464 C13.1904613,9.20618454 13.0015586,9.59098504 12.9801247,9.62842893 C12.9730923,9.64077307 12.9191895,9.73503741 12.8603865,9.83790524 C12.8015835,9.94077307 12.727182,10.0653367 12.6950499,10.1147132 C12.6629177,10.1640898 12.6228928,10.2280549 12.6060599,10.2568579 C12.5892643,10.2856608 12.5318828,10.3716958 12.4785411,10.4480424 C12.3604489,10.6170449 12.3602618,10.6217581 12.467581,10.721596 C12.5875436,10.8332544 13.070985,11.2930549 13.182419,11.4014963 C13.2737656,11.4903741 13.9958603,12.1784663 14.1324314,12.3067332 C14.1455611,12.3190773 14.2973192,12.4646259 14.4696883,12.6301496 C14.9184913,13.0612594 14.9757232,13.1147132 14.9885536,13.1147132 C14.9948379,13.1147132 15,10.1723192 15,6.57605985 L15,0.0374064838 L13.4139651,0.0374064838 C12.2675312,0.0374064838 11.8279302,0.0419700748 11.8279302,0.0539027431 M0.0374064838,13.3915212 L0.0374064838,15 L6.58354115,15 C12.2212219,15 13.1296758,14.9970449 13.1296758,14.9787905 C13.1296758,14.9671571 13.123616,14.9553741 13.1161721,14.952606 C13.1087656,14.9498753 12.9421197,14.7928055 12.7458479,14.6035287 C12.5496135,14.4142893 12.3084165,14.181995 12.2098878,14.0873192 C12.1113965,13.9926808 11.9464339,13.833404 11.8433042,13.7333791 C11.740212,13.6333541 11.6111596,13.5087905 11.5565087,13.4565711 C11.5018579,13.4043516 11.2964963,13.2065461 11.1001496,13.0170823 C10.4281421,12.3685661 10.5293641,12.4244514 10.2994638,12.5751247 C10.0676933,12.7270698 10.0074688,12.7640274 9.78553616,12.8903865 C9.71147132,12.932581 9.64077307,12.9729052 9.62842893,12.9800499 C9.59169576,13.0012219 9.20689526,13.1913217 9.14214464,13.2202743 C9.10922693,13.2350125 9.05199501,13.2603741 9.01496259,13.2766833 C8.97793017,13.2930299 8.91658354,13.3204863 8.87865337,13.3377307 C8.84072319,13.3549751 8.80342893,13.3690773 8.795798,13.3690773 C8.78812968,13.3690773 8.75547382,13.3825436 8.72319202,13.3990025 C8.69091022,13.4154613 8.65395262,13.4289277 8.64104738,13.4289277 C8.62817955,13.4289277 8.60435162,13.43798 8.58811721,13.449015 C8.57188279,13.4600499 8.53167082,13.4763217 8.49875312,13.4851496 C8.46583541,13.4939776 8.38167082,13.5209102 8.3117207,13.5450374 C8.24177057,13.5691272 8.13740648,13.6030549 8.0798005,13.6204115 C8.02219451,13.6377681 7.93081047,13.6657481 7.8767581,13.682581 C7.82266833,13.6994514 7.76697007,13.713217 7.75298005,13.713217 C7.73899002,13.713217 7.67887781,13.7262718 7.6194015,13.742207 C7.42649626,13.7939027 7.17501247,13.842793 6.9201995,13.8781047 C6.42216958,13.9471197 6.45785536,13.9451372 5.71571072,13.9446135 C5.19800499,13.9442394 4.97244389,13.9388529 4.90773067,13.9252743 C4.85835411,13.9149127 4.745798,13.9003616 4.65755611,13.8929551 C4.56935162,13.8855486 4.44478803,13.869202 4.38074813,13.8566708 C4.31674564,13.8441397 4.22394015,13.8272319 4.17456359,13.8191147 C4.06485037,13.8010848 3.95996259,13.7796135 3.79301746,13.7409352 C3.61350374,13.6993766 3.27703242,13.6081796 3.18703242,13.5767207 C3.16234414,13.5680798 3.10511222,13.5508728 3.05985037,13.5384913 C3.01458853,13.5260723 2.97082294,13.5106234 2.96259352,13.5040773 C2.95436409,13.4975686 2.92406484,13.4873192 2.89526185,13.4812968 C2.86645885,13.4752743 2.82605985,13.4618454 2.80548628,13.4514838 C2.75682045,13.4269077 2.60633416,13.3690773 2.59103491,13.3690773 C2.57775561,13.3690773 2.43029925,13.3037656 2.36925187,13.2708105 C2.34740648,13.2590274 2.32159601,13.2493766 2.31187032,13.2493766 C2.27330424,13.2493766 1.68991272,12.9501247 1.45140898,12.80798 C1.39619701,12.7750623 1.3344389,12.7391147 1.31416459,12.7281172 C1.22599751,12.6802743 0.875723192,12.4378055 0.673316708,12.2845137 C0.47861596,12.1370574 0.418541147,12.0877556 0.184975062,11.8840399 C0.121309227,11.8284913 0.0620573566,11.7830424 0.0533042394,11.7830424 C0.0421945137,11.7830424 0.0374064838,12.2660723 0.0374064838,13.3915212 M14.4659102,13.6870324 C13.6369825,14.5187282 13.1895262,14.9747506 13.1895262,14.9877681 C13.1895262,14.9945012 13.5968828,15 14.0947631,15 L15,15 L15,14.0872818 C15,13.5852868 14.9947257,13.1745636 14.9883292,13.1745636 C14.9818953,13.1745636 14.7467955,13.4051746 14.4659102,13.6870324" fill="#3C3C3C"></path>
      </g>
    </g>
  </g>
</svg>
