<svg width="13" height="13" viewBox="0 0 13 13" fill="none" xmlns="http://www.w3.org/2000/svg"><path d="M13 2.25057C12.5221 2.463 12.0078 2.6063 11.4681 2.67042C12.0191 2.34056 12.4416 1.81806 12.6408 1.19475C12.1255 1.5006 11.5549 1.72253 10.9472 1.84234C10.4609 1.32406 9.76761 1 9.00049 1C7.52772 1 6.33362 2.1941 6.33362 3.66713C6.33362 3.87587 6.3571 4.07933 6.40276 4.27487C4.18608 4.16351 2.22063 3.10188 0.905142 1.4882C0.675558 1.88192 0.544141 2.34003 0.544141 2.82928C0.544141 3.75448 1.01492 4.57096 1.73059 5.04912C1.29359 5.03514 0.882183 4.91507 0.522502 4.7153C0.522238 4.72639 0.522238 4.73773 0.522238 4.74908C0.522238 6.04109 1.44163 7.11881 2.66186 7.36423C2.43808 7.42492 2.20242 7.45765 1.95912 7.45765C1.78706 7.45765 1.62002 7.44102 1.4572 7.40962C1.79683 8.46913 2.78166 9.24048 3.94858 9.26186C3.03579 9.97726 1.88602 10.4037 0.636238 10.4037C0.421168 10.4037 0.208737 10.391 0 10.3662C1.18064 11.1233 2.58242 11.5646 4.08844 11.5646C8.99442 11.5646 11.6769 7.50066 11.6769 3.97615C11.6769 3.86056 11.6745 3.74524 11.6695 3.63072C12.1904 3.25547 12.6427 2.78548 13 2.25057Z" fill="#3C3C3C"/></svg>
