<?xml version="1.0" encoding="UTF-8"?>
<svg width="16px" height="16px" viewBox="0 0 16 16" version="1.1" xmlns="http://www.w3.org/2000/svg" xmlns:xlink="http://www.w3.org/1999/xlink">
  <g stroke="none" stroke-width="1" fill="none" fill-rule="evenodd">
    <g transform="translate(0.000000, 1.500000)" fill="#3C3C3C" fill-rule="nonzero">
      <path d="M15.94784,1.6208 C15.36832,1.8784 14.74464,2.05216 14.09024,2.12992 C14.7584,1.72992 15.27072,1.09632 15.51232,0.34048 C14.88736,0.71136 14.19552,0.98048 13.45856,1.12576 C12.8688,0.49728 12.02816,0.10432 11.09792,0.10432 C9.312,0.10432 7.864,1.55232 7.864,3.33856 C7.864,3.59168 7.89248,3.8384 7.94784,4.07552 C5.25984,3.94048 2.87648,2.65312 1.28128,0.69632 C1.00288,1.17376 0.84352,1.72928 0.84352,2.32256 C0.84352,3.44448 1.4144,4.43456 2.28224,5.0144 C1.75232,4.99744 1.25344,4.85184 0.81728,4.6096 C0.81696,4.62304 0.81696,4.6368 0.81696,4.65056 C0.81696,6.21728 1.93184,7.52416 3.41152,7.82176 C3.14016,7.89536 2.8544,7.93504 2.55936,7.93504 C2.35072,7.93504 2.14816,7.91488 1.95072,7.8768 C2.36256,9.1616 3.5568,10.09696 4.97184,10.12288 C3.86496,10.9904 2.47072,11.50752 0.9552,11.50752 C0.6944,11.50752 0.4368,11.49216 0.18368,11.46208 C1.61536,12.38016 3.3152,12.9152 5.14144,12.9152 C11.09056,12.9152 14.34336,7.9872 14.34336,3.71328 C14.34336,3.57312 14.34048,3.43328 14.3344,3.2944 C14.96608,2.83936 15.51456,2.26944 15.94784,1.6208 Z"></path>
    </g>
  </g>
</svg>
